<svg id="Ebene_4" data-name="Ebene 4" xmlns="http://www.w3.org/2000/svg" viewBox="0 0 683.36 149.12"><defs><style>.cls-1,.cls-2{fill:#0098d3;}.cls-1{fill-rule:evenodd;}</style></defs><path class="cls-1" d="M606.63,24.22c17.68-.33,31.25,2.64,41.71,9.37v.25l-8.89,13.08a65.94,65.94,0,0,0-15.3-6.17c-12.91-3.24-39.54-3.29-35,14.31,2.64,10.33,18.76,9.84,29.61,12.09,17.1,3.56,30.91,6.1,34.06,23.69C660.18,132.18,602.17,130,577,119c-3.35-1.47-7.28-2.93-9.62-5.43l7.89-12.34,11.6,5.92c12.85,5.29,55.78,10.17,49.6-13.82C633.05,80,594.58,81,582.7,73.57c-13.58-8.5-13-34.26-.25-43.18,4.58-3.22,10.92-4.5,17.52-5.68Z"/><path class="cls-1" d="M32.64,25.94h69.59V41.49H48.93V65.92h51.82V81.47H48.93v27.64h53.8v15.3H32.64Z"/><path class="cls-1" d="M120.49,25.94h21.23l6.9,17,17.53,41.71c1.48,3.54,6.9,16,6.9,16l30.6-74.78h21.23v98.47h-16l-.25-70.58v.49l-29.12,70.09H165.65L136.53,54.08h-.24v70.33h-15.8Z"/><path class="cls-1" d="M246.1,25.94h33.81c24.86,0,42,1.41,46.88,21.23a45.42,45.42,0,0,1,.5,15.54c-2.77,16.89-9.11,23.66-25.17,27.15-2.51.54-21.08,2.35-23.2.49L276.45,76c19.93.29,37.79,1,34.8-21.47a20.18,20.18,0,0,0-2.22-7.4c-6-9.72-31.64-6.56-47.14-6.42v83.66H246.1Z"/><path class="cls-1" d="M454.37,25.94h16.29V109.6h50.1v14.81H454.37Z"/><path class="cls-1" d="M535.32,25.94H551.6v98.47H535.32Z"/><path class="cls-2" d="M339.13,74.23c0-35.63,19-50,50.08-50s50.2,14.41,50.2,50-19.14,50.18-50.2,50.18S339.13,110,339.13,74.23Zm84.29.27c0-22.14-9.83-35-34.21-35s-34.09,12.84-34.09,35,9.83,35.1,34.09,35.1S423.42,96.76,423.42,74.5Z"/></svg>